<?xml version="1.0" encoding="UTF-8"?><svg id="a" xmlns="http://www.w3.org/2000/svg" viewBox="0 0 383.78 490.27"><path d="M254.99,146.64h45.61c.19,0,1.91,1.8,2.07,2.33,1.05,3.53-.39,7.71-4.09,8.86l-45.2.1-1.87.65-54.24,202.98c-19.31,62.9-64.31,133.98-139.52,128.42-29.38-2.17-60.47-24.72-57.57-56.89,2.39-26.53,35.21-32.75,46.03-8.3,6.77,15.31,4.47,32.84,3.8,49.03,7.92,13.06,23.72,7.87,33.22-.49,24.59-21.63,42.94-87.77,52.03-119.66,18.53-64.97,34.5-130.72,53.03-195.7h-39.32c-2.34,0-3.74-9.24.76-10.56l41.68-.16C207.71,85.73,239.54,3.68,314.42.1c28-1.34,60.65,10.34,67.98,40.26,4.48,18.3-1.44,42.7-24.53,40.87-23.15-1.83-25.52-34.15-24.85-51.86.11-2.84,1.77-12.29.93-14.14-1.6-3.5-11.54-6.2-15.16-6.23-19.65-.19-28.86,22.09-34.69,37.51-12.21,32.3-19.15,67.08-29.1,100.14Z" fill="#fff"/></svg>